<?xml version="1.0" encoding="UTF-8" standalone="no"?>
<svg
   xmlns:dc="http://purl.org/dc/elements/1.1/"
   xmlns:cc="http://creativecommons.org/ns#"
   xmlns:rdf="http://www.w3.org/1999/02/22-rdf-syntax-ns#"
   xmlns:svg="http://www.w3.org/2000/svg"
   xmlns="http://www.w3.org/2000/svg"
   viewBox="0 0 755.90668 755.90668"
   height="755.90668"
   width="755.90668"
   xml:space="preserve"
   id="svg2"
   version="1.1"><metadata
     id="metadata8"><rdf:RDF><cc:Work
         rdf:about=""><dc:format>image/svg+xml</dc:format><dc:type
           rdf:resource="http://purl.org/dc/dcmitype/StillImage" /></cc:Work></rdf:RDF></metadata><defs
     id="defs6" /><g
     transform="matrix(1.3333333,0,0,-1.3333333,0,755.90667)"
     id="g10"><g
       transform="scale(0.1)"
       id="g12"><path
         id="path14"
         style="fill:#ffffff;fill-opacity:1;fill-rule:nonzero;stroke:none"
         d="m 4498.7,2856.4 c 0,-920.38 -746.12,-1666.51 -1666.51,-1666.51 -920.39,0 -1666.51,746.13 -1666.51,1666.51 0,920.39 746.12,1666.51 1666.51,1666.51 920.39,0 1666.51,-746.12 1666.51,-1666.51" /><path
         id="path16"
         style="fill:none;stroke:#1f1a1a;stroke-width:30;stroke-linecap:round;stroke-linejoin:round;stroke-miterlimit:10;stroke-dasharray:none;stroke-opacity:1"
         d="m 4498.7,2856.4 c 0,-920.38 -746.12,-1666.51 -1666.51,-1666.51 -920.39,0 -1666.51,746.13 -1666.51,1666.51 0,920.39 746.12,1666.51 1666.51,1666.51 920.39,0 1666.51,-746.12 1666.51,-1666.51 z" /><path
         id="path18"
         style="fill:#99d761;fill-opacity:1;fill-rule:nonzero;stroke:none"
         d="m 1843.35,3595.34 c -22.12,-43.79 -75.55,-61.36 -119.34,-39.25 -43.78,22.12 -61.35,75.54 -39.24,119.33 22.12,43.79 75.54,61.36 119.33,39.25 43.79,-22.12 61.36,-75.54 39.25,-119.33" /><path
         id="path20"
         style="fill:#99d761;fill-opacity:1;fill-rule:nonzero;stroke:none"
         d="m 1751.1,3752.93 c -10.01,-19.83 -34.2,-27.78 -54.02,-17.77 -19.82,10.01 -27.78,34.2 -17.77,54.02 10.02,19.83 34.2,27.78 54.03,17.77 19.82,-10.01 27.78,-34.2 17.76,-54.02" /><path
         id="path22"
         style="fill:#99d761;fill-opacity:1;fill-rule:nonzero;stroke:none"
         d="m 2151.6,3725.34 c -11.7,-23.16 -39.97,-32.46 -63.13,-20.76 -23.17,11.7 -32.46,39.96 -20.76,63.13 11.7,23.16 39.96,32.46 63.13,20.76 23.16,-11.7 32.46,-39.96 20.76,-63.13" /><path
         id="path24"
         style="fill:#c8171e;fill-opacity:1;fill-rule:nonzero;stroke:none"
         d="m 1942.52,3601.72 c -10.7,-21.2 -36.57,-29.71 -57.77,-19 -21.2,10.7 -29.7,36.57 -19,57.77 10.71,21.2 36.58,29.7 57.77,19 21.2,-10.71 29.71,-36.57 19,-57.77" /><path
         id="path26"
         style="fill:#99d761;fill-opacity:1;fill-rule:nonzero;stroke:none"
         d="m 2099.1,3611.49 c -17.56,-34.75 -59.96,-48.7 -94.71,-31.15 -34.75,17.56 -48.7,59.96 -31.15,94.71 17.55,34.75 59.96,48.7 94.71,31.15 34.75,-17.55 48.7,-59.96 31.15,-94.71" /><path
         id="path28"
         style="fill:#32682d;fill-opacity:1;fill-rule:nonzero;stroke:none"
         d="m 2262.8,3630.69 c -17.55,-34.75 -59.95,-48.69 -94.71,-31.14 -34.75,17.55 -48.7,59.95 -31.14,94.7 17.55,34.76 59.95,48.7 94.7,31.15 34.76,-17.55 48.7,-59.95 31.15,-94.71" /><path
         id="path30"
         style="fill:#99d761;fill-opacity:1;fill-rule:nonzero;stroke:none"
         d="m 2314.87,3761.95 c -15.44,-30.58 -52.76,-42.85 -83.34,-27.41 -30.58,15.45 -42.85,52.76 -27.41,83.35 15.45,30.58 52.76,42.85 83.35,27.4 30.58,-15.44 42.85,-52.75 27.4,-83.34" /><path
         id="path32"
         style="fill:#99d761;fill-opacity:1;fill-rule:nonzero;stroke:none"
         d="m 1916.35,3742.23 c -15.44,-30.59 -52.76,-42.86 -83.34,-27.41 -30.58,15.44 -42.85,52.76 -27.41,83.34 15.45,30.58 52.76,42.85 83.34,27.41 30.59,-15.45 42.86,-52.76 27.41,-83.34" /><path
         id="path34"
         style="fill:#99d761;fill-opacity:1;fill-rule:nonzero;stroke:none"
         d="m 2467.18,3594.69 c -15.44,-30.59 -52.76,-42.86 -83.34,-27.41 -30.58,15.44 -42.86,52.76 -27.41,83.34 15.45,30.58 52.76,42.85 83.34,27.41 30.59,-15.45 42.86,-52.76 27.41,-83.34" /><path
         id="path36"
         style="fill:#c8171e;fill-opacity:1;fill-rule:nonzero;stroke:none"
         d="m 1818.65,3830.7 c -12.03,-23.8 -41.07,-33.35 -64.88,-21.33 -23.8,12.02 -33.35,41.07 -21.33,64.87 12.02,23.81 41.07,33.36 64.87,21.34 23.81,-12.02 33.36,-41.07 21.34,-64.88" /><path
         id="path38"
         style="fill:#c8171e;fill-opacity:1;fill-rule:nonzero;stroke:none"
         d="m 2421.67,3715.9 c -12.02,-23.81 -41.07,-33.36 -64.87,-21.33 -23.81,12.02 -33.36,41.06 -21.34,64.87 12.03,23.81 41.07,33.36 64.88,21.33 23.8,-12.02 33.36,-41.06 21.33,-64.87" /><path
         id="path40"
         style="fill:#32682d;fill-opacity:1;fill-rule:nonzero;stroke:none"
         d="m 2025.16,3751.25 c -12.03,-23.81 -41.07,-33.36 -64.88,-21.34 -23.8,12.02 -33.35,41.07 -21.33,64.87 12.02,23.81 41.07,33.36 64.87,21.34 23.81,-12.02 33.36,-41.07 21.34,-64.87" /><path
         id="path42"
         style="fill:#32682d;fill-opacity:1;fill-rule:nonzero;stroke:none"
         d="m 2179.13,3922.43 c -10.97,-21.72 -37.47,-30.44 -59.2,-19.47 -21.72,10.97 -30.43,37.47 -19.46,59.19 10.97,21.72 37.47,30.44 59.19,19.47 21.72,-10.97 30.44,-37.47 19.47,-59.19" /><path
         id="path44"
         style="fill:#32682d;fill-opacity:1;fill-rule:nonzero;stroke:none"
         d="m 2334.31,3624.19 c -4.38,-8.69 -14.98,-12.17 -23.67,-7.78 -8.69,4.38 -12.18,14.98 -7.79,23.67 4.39,8.69 14.99,12.18 23.68,7.79 8.69,-4.39 12.17,-14.99 7.78,-23.68" /><path
         id="path46"
         style="fill:#c8171e;fill-opacity:1;fill-rule:nonzero;stroke:none"
         d="m 2330.41,3679.47 c -5.7,-11.29 -19.48,-15.83 -30.78,-10.12 -11.29,5.7 -15.82,19.48 -10.12,30.78 5.7,11.29 19.49,15.83 30.78,10.12 11.3,-5.7 15.83,-19.48 10.12,-30.78" /><path
         id="path48"
         style="fill:#32682d;fill-opacity:1;fill-rule:nonzero;stroke:none"
         d="m 2157.62,3794.94 c -1.27,8.47 4.57,16.36 13.04,17.63 8.47,1.27 16.36,-4.57 17.63,-13.04 1.27,-8.47 -4.57,-16.37 -13.04,-17.63 -8.47,-1.27 -16.36,4.56 -17.63,13.04" /><path
         id="path50"
         style="fill:#c8171e;fill-opacity:1;fill-rule:nonzero;stroke:none"
         d="m 2173.37,3853.96 c -1.71,11.36 6.12,21.95 17.48,23.65 11.36,1.71 21.95,-6.12 23.65,-17.48 1.7,-11.36 -6.13,-21.95 -17.49,-23.65 -11.35,-1.7 -21.94,6.13 -23.64,17.48" /><path
         id="path52"
         style="fill:#32682d;fill-opacity:1;fill-rule:nonzero;stroke:none"
         d="m 1948.73,3847.89 c -5.18,-10.25 -17.69,-14.36 -27.94,-9.18 -10.25,5.17 -14.37,17.68 -9.19,27.93 5.18,10.26 17.69,14.37 27.94,9.19 10.25,-5.18 14.37,-17.68 9.19,-27.94" /><path
         id="path54"
         style="fill:#c8171e;fill-opacity:1;fill-rule:nonzero;stroke:none"
         d="m 2078.46,3800.34 c -5.18,-10.26 -17.69,-14.37 -27.94,-9.19 -10.25,5.18 -14.36,17.68 -9.19,27.94 5.18,10.25 17.69,14.36 27.94,9.18 10.25,-5.17 14.37,-17.68 9.19,-27.93" /><path
         id="path56"
         style="fill:#32682d;fill-opacity:1;fill-rule:nonzero;stroke:none"
         d="m 2496.99,3815.02 c -5.18,-10.25 -17.68,-14.36 -27.94,-9.19 -10.25,5.18 -14.36,17.69 -9.18,27.94 5.17,10.25 17.68,14.37 27.93,9.19 10.26,-5.18 14.37,-17.69 9.19,-27.94" /><path
         id="path58"
         style="fill:#c8171e;fill-opacity:1;fill-rule:nonzero;stroke:none"
         d="m 1952.83,3691.82 c -6.23,-12.34 -21.29,-17.29 -33.62,-11.06 -12.34,6.23 -17.29,21.28 -11.06,33.62 6.23,12.34 21.28,17.29 33.62,11.06 12.34,-6.23 17.29,-21.28 11.06,-33.62" /><path
         id="path60"
         style="fill:#32682d;fill-opacity:1;fill-rule:nonzero;stroke:none"
         d="m 2541.82,3671.76 c -12.03,-23.8 -41.07,-33.35 -64.88,-21.33 -23.8,12.02 -33.36,41.07 -21.33,64.87 12.02,23.81 41.07,33.36 64.87,21.34 23.81,-12.02 33.36,-41.07 21.34,-64.88" /><path
         id="path62"
         style="fill:#32682d;fill-opacity:1;fill-rule:nonzero;stroke:none"
         d="m 1734.21,3897.99 c -5.97,-11.82 -20.38,-16.56 -32.2,-10.59 -11.82,5.96 -16.56,20.38 -10.59,32.2 5.97,11.81 20.38,16.55 32.2,10.59 11.82,-5.97 16.56,-20.39 10.59,-32.2" /><path
         id="path64"
         style="fill:#c8171e;fill-opacity:1;fill-rule:nonzero;stroke:none"
         d="m 1674.97,3681.16 c -5.97,-11.81 -20.38,-16.55 -32.2,-10.59 -11.82,5.97 -16.56,20.39 -10.59,32.2 5.97,11.82 20.38,16.56 32.2,10.59 11.82,-5.96 16.56,-20.38 10.59,-32.2" /><path
         id="path66"
         style="fill:#231f20;fill-opacity:1;fill-rule:nonzero;stroke:none"
         d="m 2405.56,3302.54 h -31.43 c -7.63,0 -12.85,-3.97 -15.71,-11.9 l -199.99,-470.23 c 23.79,-14.87 42.36,-33.47 55.71,-55.8 13.33,-22.31 23.56,-46.63 30.71,-72.91 7.15,-26.3 12.37,-53.83 15.71,-82.59 3.33,-28.79 6.91,-57.06 10.71,-84.82 1.91,-20.83 4.05,-42.18 6.44,-63.99 2.36,-21.82 8.32,-42.17 17.86,-61.01 7.61,-10.92 15.47,-18.85 23.57,-23.8 8.08,-4.98 18.79,-7.95 32.14,-8.93 v -37.2 c -19.07,1.99 -35.71,6.21 -50.01,12.64 -14.28,6.47 -27.62,17.61 -39.98,33.49 -11.44,16.86 -20.26,34.97 -26.44,54.31 -6.21,19.34 -10.96,39.43 -14.28,60.27 -3.36,20.83 -5.72,41.9 -7.15,63.23 -1.42,21.33 -3.1,41.91 -4.99,61.76 -1.93,14.88 -3.82,30.75 -5.72,47.62 -1.92,16.85 -4.99,32.97 -9.29,48.36 -4.28,15.36 -10.24,29.51 -17.86,42.41 -7.62,12.88 -18.1,23.82 -31.41,32.73 l -152.86,-361.59 v -19.34 c 0,-12.9 5.72,-19.35 17.14,-19.35 h 18.58 v -37.2 h -125.72 v 37.2 h 17.14 c 12.36,0 18.57,6.45 18.57,19.35 v 877.95 c 0,12.88 -6.21,19.34 -18.57,19.34 h -17.14 v 37.2 h 125.72 v -37.2 h -18.58 c -11.42,0 -17.14,-6.46 -17.14,-19.34 v -764.86 l 328.56,775.28 v 4.46 c 0,2.98 -1.92,4.46 -5.71,4.46 h -17.15 v 37.2 h 108.57 v -37.2" /><path
         id="path68"
         style="fill:none;stroke:#231f20;stroke-width:7.5;stroke-linecap:butt;stroke-linejoin:miter;stroke-miterlimit:10;stroke-dasharray:none;stroke-opacity:1"
         d="m 2405.56,3302.54 h -31.43 c -7.63,0 -12.85,-3.97 -15.71,-11.9 l -199.99,-470.23 c 23.79,-14.87 42.36,-33.47 55.71,-55.8 13.33,-22.31 23.56,-46.63 30.71,-72.91 7.15,-26.3 12.37,-53.83 15.71,-82.59 3.33,-28.79 6.91,-57.06 10.71,-84.82 1.91,-20.83 4.05,-42.18 6.44,-63.99 2.36,-21.82 8.32,-42.17 17.86,-61.01 7.61,-10.92 15.47,-18.85 23.57,-23.8 8.08,-4.98 18.79,-7.95 32.14,-8.93 v -37.2 c -19.07,1.99 -35.71,6.21 -50.01,12.64 -14.28,6.47 -27.62,17.61 -39.98,33.49 -11.44,16.86 -20.26,34.97 -26.44,54.31 -6.21,19.34 -10.96,39.43 -14.28,60.27 -3.36,20.83 -5.72,41.9 -7.15,63.23 -1.42,21.33 -3.1,41.91 -4.99,61.76 -1.93,14.88 -3.82,30.75 -5.72,47.62 -1.92,16.85 -4.99,32.97 -9.29,48.36 -4.28,15.36 -10.24,29.51 -17.86,42.41 -7.62,12.88 -18.1,23.82 -31.41,32.73 l -152.86,-361.59 v -19.34 c 0,-12.9 5.72,-19.35 17.14,-19.35 h 18.58 v -37.2 h -125.72 v 37.2 h 17.14 c 12.36,0 18.57,6.45 18.57,19.35 v 877.95 c 0,12.88 -6.21,19.34 -18.57,19.34 h -17.14 v 37.2 h 125.72 v -37.2 h -18.58 c -11.42,0 -17.14,-6.46 -17.14,-19.34 v -764.86 l 328.56,775.28 v 4.46 c 0,2.98 -1.92,4.46 -5.71,4.46 h -17.15 v 37.2 h 108.57 z" /><path
         id="path70"
         style="fill:#231f20;fill-opacity:1;fill-rule:nonzero;stroke:none"
         d="m 2653.99,2545.29 c -0.6,-0.89 -2.3,-1.79 -5.13,-2.67 -2.84,-0.9 -4.85,-1.35 -6.02,-1.35 -3.58,0 -6.7,1.78 -9.38,5.36 1.19,3.27 2.01,6.32 2.45,9.15 0.45,2.82 0.97,5.87 1.56,9.15 0.29,7.44 -0.22,15.25 -1.56,23.44 -1.34,8.19 -3.79,15.54 -7.37,22.1 -3.56,6.54 -8.19,11.97 -13.83,16.29 -5.67,4.32 -12.51,6.47 -20.54,6.47 -10.42,0 -20.98,-4.1 -31.69,-12.27 -10.72,-8.19 -20.98,-18.75 -30.81,-31.7 -9.82,-12.94 -19.05,-27.45 -27.68,-43.52 -8.62,-16.07 -16.29,-32.08 -22.98,-48 -6.7,-15.92 -12.13,-30.87 -16.29,-44.86 -4.18,-13.99 -6.56,-25.3 -7.15,-33.93 -0.3,-4.17 -0.38,-8.64 -0.22,-13.39 0.14,-4.76 0.96,-9.15 2.45,-13.16 1.48,-4.03 3.71,-7.31 6.7,-9.83 2.97,-2.54 7.13,-3.79 12.5,-3.79 9.22,0 18.97,4.69 29.23,14.05 10.27,9.38 20.24,20.77 29.91,34.15 9.67,13.4 18.68,27.47 27.02,42.2 8.32,14.73 15.32,27.6 20.98,38.61 0.89,3.27 2.3,7.14 4.24,11.6 1.93,4.47 2.6,9.38 2,14.73 -0.59,4.18 1.05,6.93 4.92,8.27 3.86,1.34 8.03,2.16 12.5,2.45 17.55,-1.5 29.83,-5.58 36.83,-12.28 6.99,-6.69 10.94,-14.66 11.82,-23.88 0.9,-9.53 -0.08,-19.79 -2.89,-30.8 -2.84,-11.01 -5,-21.28 -6.47,-30.8 -0.31,-2.09 -0.84,-5.51 -1.58,-10.27 -0.74,-4.77 -1.41,-9.97 -2,-15.63 -0.6,-5.65 -1.05,-11.38 -1.34,-17.18 -0.3,-5.8 -0.08,-10.65 0.67,-14.51 0.74,-3.87 2.08,-6.4 4.02,-7.59 1.93,-1.19 4.84,-0.15 8.71,3.13 7.13,7.14 14.73,16.43 22.76,27.9 8.03,11.45 16,23.66 23.88,36.61 7.89,12.94 15.47,26.03 22.77,39.28 7.29,13.24 13.91,25.37 19.86,36.39 3.28,7.13 6.62,13.89 10.04,20.3 3.43,6.39 6.33,11.68 8.71,15.85 2.09,0.89 4.32,1.34 6.7,1.34 2.68,0 4.83,-0.82 6.47,-2.46 1.64,-1.64 3.05,-3.65 4.24,-6.02 l -4.46,-9.82 c -4.16,-8.34 -9,-18.02 -14.51,-29.02 -5.51,-11.01 -11.45,-22.62 -17.86,-34.83 -6.39,-12.2 -13.24,-24.54 -20.53,-37.04 -7.29,-12.5 -14.58,-24.41 -21.88,-35.72 -7.29,-11.31 -14.73,-21.65 -22.31,-31.02 -7.59,-9.38 -14.81,-16.9 -21.65,-22.55 -5.96,-5.06 -13.11,-9.22 -21.43,-12.5 -8.33,-3.27 -16.53,-4.91 -24.56,-4.91 -10.71,0 -19.05,3.8 -24.99,11.39 -5.96,7.59 -10.35,16.67 -13.17,27.22 -2.84,10.57 -4.4,21.51 -4.69,32.82 -0.31,11.31 0.14,20.69 1.33,28.12 0,0.6 0,0.97 0,1.13 0,0.14 0.15,1.25 0.45,3.34 -8.03,-13.4 -16.9,-26.42 -26.55,-39.06 -9.69,-12.66 -19.95,-23.89 -30.81,-33.71 -10.87,-9.82 -22.25,-17.79 -34.15,-23.88 -11.9,-6.1 -24.11,-9.16 -36.61,-9.16 -11.61,0 -21.42,2.09 -29.46,6.25 -8.04,4.18 -14.44,9.67 -19.19,16.53 -4.77,6.84 -8.19,14.88 -10.28,24.1 -2.07,9.22 -3.12,18.9 -3.12,29.02 0,1.78 0,3.86 0,6.25 0,2.38 0.15,4.61 0.45,6.7 1.79,14.87 5.58,31.39 11.38,49.55 5.81,18.15 13.25,36.53 22.32,55.13 9.08,18.6 19.57,36.67 31.47,54.24 11.9,17.56 24.93,33.11 39.06,46.65 14.14,13.54 29.09,24.4 44.87,32.59 15.77,8.18 32.14,12.27 49.1,12.27 13.09,0 24.71,-3.12 34.83,-9.36 10.11,-6.27 18.6,-14.38 25.44,-24.34 6.84,-9.97 11.84,-21.14 14.95,-33.49 3.13,-12.35 4.24,-24.77 3.36,-37.27 -0.9,-8.64 -2.68,-16.67 -5.36,-24.1 l -0.45,-0.45" /><path
         id="path72"
         style="fill:#231f20;fill-opacity:1;fill-rule:nonzero;stroke:none"
         d="m 2828.99,2564.05 c -0.9,-3.29 -1.72,-6.41 -2.46,-9.38 -0.74,-2.99 -1.41,-5.8 -2.01,-8.49 3.57,5.06 7.07,10.41 10.49,16.07 3.42,5.65 7.22,11.45 11.39,17.41 8.03,12.5 16.35,25.07 24.99,37.73 8.63,12.64 17.71,24.1 27.23,34.37 9.53,10.27 19.57,18.59 30.14,25 10.56,6.39 21.79,9.6 33.71,9.6 8.32,0 15.18,-1.42 20.53,-4.24 5.36,-2.84 9.6,-6.7 12.72,-11.61 3.13,-4.91 5.14,-10.79 6.02,-17.64 0.9,-6.84 1.05,-14.28 0.45,-22.31 -1.49,-16.67 -5.35,-35.35 -11.6,-56.03 -6.26,-20.68 -13.25,-41.45 -20.99,-62.27 -6.54,-19.05 -12.64,-37.81 -18.29,-56.25 -5.66,-18.46 -9.24,-34.09 -10.72,-46.87 0,-2.99 0.07,-6.48 0.23,-10.49 0.14,-4.03 0.51,-7.82 1.11,-11.39 0.59,-3.57 1.63,-6.55 3.13,-8.93 1.48,-2.39 3.41,-3.57 5.8,-3.57 4.16,0 9.67,3.64 16.51,10.94 6.84,7.28 14.22,16.58 22.1,27.9 7.89,11.31 15.85,23.81 23.89,37.49 8.03,13.69 15.62,26.94 22.76,39.74 7.15,12.79 13.39,24.26 18.76,34.38 5.35,10.1 9.22,17.41 11.6,21.86 0,0.9 0.45,1.8 1.34,2.68 l 1.79,3.58 c 1.48,2.67 2.82,4.9 4.01,6.69 1.19,1.79 3.43,2.68 6.7,2.68 2.97,0 5.27,-0.82 6.92,-2.46 1.63,-1.64 3.04,-3.65 4.24,-6.02 -2.08,-3.57 -4.39,-7.89 -6.92,-12.95 -2.53,-5.06 -4.99,-10.12 -7.37,-15.18 -5.96,-11.6 -12.43,-24.32 -19.42,-38.16 -6.99,-13.85 -14.44,-27.68 -22.31,-41.53 -7.9,-13.83 -16.16,-27.22 -24.78,-40.17 -8.63,-12.95 -17.48,-24.48 -26.56,-34.6 -9.09,-10.12 -18.24,-18.15 -27.46,-24.11 -9.22,-5.94 -18.46,-8.92 -27.68,-8.92 -10.42,0 -19.13,1.56 -26.12,4.68 -6.99,3.13 -12.57,7.37 -16.74,12.72 -4.17,5.37 -7.21,11.76 -9.15,19.21 -1.93,7.43 -2.89,15.62 -2.89,24.55 0,1.78 0,3.87 0,6.25 0,2.37 0.14,4.61 0.45,6.69 1.17,11.62 3.48,23.95 6.9,37.06 3.43,13.09 7.22,26.49 11.39,40.17 4.16,13.69 8.71,27.16 13.62,40.4 4.9,13.24 9.59,25.67 14.06,37.28 5.96,16.07 11.23,30.36 15.85,42.86 4.61,12.49 7.21,21.72 7.81,27.67 0.29,5.37 -1.04,8.04 -4.02,8.04 -5.35,0 -11.53,-2.9 -18.52,-8.71 -7,-5.8 -14.44,-13.38 -22.32,-22.76 -7.89,-9.38 -15.86,-19.87 -23.89,-31.47 -8.03,-11.61 -15.77,-23.29 -23.21,-35.05 -7.44,-11.76 -14.22,-22.84 -20.31,-33.26 -6.1,-10.41 -11.24,-19.05 -15.4,-25.9 v 0.45 l -7.15,-12.49 h 0.45 c -5.07,-12.21 -9.38,-26.12 -12.94,-41.74 -3.58,-15.62 -5.96,-30.43 -7.15,-44.42 -0.3,-2.38 -0.45,-4.69 -0.45,-6.93 0,-2.21 0,-4.53 0,-6.9 0,-7.15 0.45,-13.26 1.35,-18.31 0.88,-5.06 1.78,-9.23 2.67,-12.5 0.9,-2.68 1.34,-4.77 1.34,-6.25 0,-4.18 -3.27,-6.25 -9.82,-6.25 -10.72,0 -19.64,2.15 -26.78,6.47 -7.15,4.31 -12.72,9.96 -16.74,16.97 -4.02,6.98 -6.84,14.95 -8.48,23.88 -1.64,8.93 -2.46,18.01 -2.46,27.23 0,2.97 0.08,5.96 0.23,8.93 0.14,2.97 0.37,6.09 0.66,9.38 0.89,9.81 2.16,20.08 3.8,30.79 1.64,10.72 3.57,21.51 5.8,32.37 2.23,10.86 4.69,21.49 7.37,31.92 2.67,10.42 5.19,20.38 7.58,29.9 4.17,16.08 7.81,31.1 10.94,45.09 3.12,13.99 5.13,26.04 6.03,36.17 0.29,4.76 0.22,8.92 -0.23,12.5 -0.45,3.57 -0.96,6.84 -1.56,9.82 -0.3,1.49 -0.52,2.82 -0.67,4.01 -0.15,1.19 -0.22,2.38 -0.22,3.58 0.29,4.16 2.15,6.99 5.58,8.48 3.41,1.48 7.22,2.24 11.38,2.24 11.31,0 20.38,-1.87 27.24,-5.59 6.84,-3.73 12.11,-8.56 15.84,-14.51 3.72,-5.96 6.1,-12.57 7.15,-19.87 1.04,-7.29 1.26,-14.66 0.67,-22.1 -0.61,-8.03 -1.72,-16.14 -3.36,-24.32 -1.63,-8.19 -3.5,-15.85 -5.57,-22.98" /><path
         id="path74"
         style="fill:#231f20;fill-opacity:1;fill-rule:nonzero;stroke:none"
         d="m 3187.9,2567.16 c 0,-12.49 0.74,-25.6 2.23,-39.29 1.48,-13.68 4.38,-26.4 8.7,-38.16 4.31,-11.76 10.27,-21.88 17.87,-30.36 7.58,-8.48 17.62,-13.91 30.12,-16.29 5.65,9.22 10.93,19.42 15.85,30.58 4.91,11.15 9.3,22.61 13.17,34.38 3.86,11.74 7.07,23.8 9.59,36.16 2.54,12.34 4.25,24.32 5.14,35.93 0.59,4.16 0.9,8.11 0.9,11.84 0,3.71 0,7.5 0,11.37 0,12.8 -1.12,24.85 -3.36,36.16 -2.23,11.31 -5.65,21.14 -10.26,29.47 -4.63,8.32 -10.57,14.96 -17.86,19.86 -7.3,4.91 -15.84,7.37 -25.67,7.37 -6.84,0 -12.87,-2.46 -18.07,-7.37 -5.22,-4.9 -9.61,-11.54 -13.17,-19.86 -3.57,-8.33 -6.41,-18.02 -8.49,-29.02 -2.08,-11.02 -3.72,-22.47 -4.91,-34.38 -0.59,-5.35 -1.04,-11.31 -1.33,-17.84 -0.31,-6.56 -0.45,-13.4 -0.45,-20.55 z m 40.62,-149.09 c -14.89,4.45 -27.68,10.33 -38.39,17.62 -10.72,7.29 -19.65,15.85 -26.79,25.67 -7.14,9.83 -12.72,20.69 -16.74,32.59 -4.02,11.9 -6.78,24.7 -8.26,38.39 -0.9,-4.76 -1.56,-9.67 -2.01,-14.73 -0.44,-5.06 -0.96,-10.12 -1.55,-15.18 -0.9,-9.52 -1.35,-18.75 -1.35,-27.68 0,-11.01 0.67,-21.65 2.01,-31.91 1.34,-10.27 3.64,-19.36 6.92,-27.23 3.28,-7.89 7.6,-14.21 12.95,-18.97 5.36,-4.77 11.9,-7.15 19.64,-7.15 10.12,0 19.49,2.38 28.13,7.15 8.62,4.76 17.1,11.89 25.44,21.43 z m -88.39,-79.91 c -16.97,0 -31.1,4.53 -42.41,13.6 -11.31,9.08 -20.46,20.61 -27.45,34.6 -7,13.99 -11.92,29.47 -14.73,46.44 -2.84,16.96 -4.24,33.47 -4.24,49.55 0,4.47 0,8.85 0,13.16 0,4.32 0.29,8.27 0.88,11.83 1.19,14.29 2.83,27.52 4.92,39.73 2.07,12.21 4.75,22.62 8.03,31.26 5.96,7.14 12.87,12.33 20.75,15.62 7.89,3.27 16,4.91 24.34,4.91 4.75,0 9.6,-0.6 14.5,-1.79 4.92,-1.19 9.45,-2.83 13.62,-4.91 1.48,15.77 4.08,31.48 7.81,47.09 3.73,15.63 9.22,29.7 16.53,42.2 7.28,12.5 16.8,22.62 28.56,30.36 11.76,7.73 26.57,11.6 44.43,11.6 14.57,0 27,-3.06 37.26,-9.15 10.28,-6.1 18.76,-14.37 25.45,-24.78 6.7,-10.42 11.61,-22.76 14.74,-37.06 3.12,-14.28 4.68,-29.61 4.68,-45.97 0,-8.93 -0.44,-17.41 -1.34,-25.44 v 0.43 c -2.39,-23.21 -7.29,-47.01 -14.73,-71.41 -7.43,-24.42 -16.81,-47.32 -28.12,-68.75 11.61,2.38 21.87,6.76 30.8,13.17 8.92,6.39 17.11,14.12 24.55,23.21 7.44,9.08 14.21,19.04 20.32,29.91 6.09,10.86 11.97,21.8 17.63,32.81 l 9.82,17.85 c 1.48,0.6 2.91,1.19 4.24,1.79 1.33,0.59 2.46,0.89 3.34,0.89 1.5,0 2.98,-0.59 4.47,-1.78 1.49,-1.19 2.68,-3.58 3.58,-7.15 -5.07,-11.9 -11.61,-25.52 -19.65,-40.84 -8.03,-15.33 -17.57,-29.85 -28.57,-43.53 -11.02,-13.69 -23.6,-25.45 -37.72,-35.26 -14.15,-9.83 -29.84,-15.18 -47.09,-16.08 -7.75,-11.6 -16.01,-22.17 -24.79,-31.69 -8.78,-9.53 -18.23,-17.7 -28.35,-24.55 -10.12,-6.85 -20.68,-12.2 -31.69,-16.07 -11.02,-3.88 -22.47,-5.8 -34.37,-5.8" /><path
         id="path76"
         style="fill:#231f20;fill-opacity:1;fill-rule:nonzero;stroke:none"
         d="m 3426.27,2486.37 c -2.68,-14.3 -5.51,-28.88 -8.48,-43.76 -2.97,-14.89 -6.1,-30.21 -9.38,-45.97 2.97,-5.07 6.7,-9.76 11.16,-14.07 4.47,-4.32 9.38,-7.89 14.73,-10.71 5.37,-2.83 11.02,-4.77 16.96,-5.8 5.96,-1.05 12.07,-0.84 18.31,0.66 9.82,2.08 18.97,7.43 27.46,16.07 8.48,8.63 16.07,19.27 22.77,31.92 6.69,12.64 12.64,26.63 17.85,41.97 5.2,15.33 9.52,30.72 12.95,46.2 3.42,15.47 6.02,30.58 7.82,45.31 1.78,14.73 2.66,27.74 2.66,39.07 0,4.16 -0.14,8.03 -0.43,11.6 -0.3,3.58 -0.75,6.84 -1.35,9.82 -0.59,4.17 -1.56,8.55 -2.89,13.18 -1.35,4.61 -3.36,8.62 -6.04,12.04 -2.67,3.42 -5.96,5.95 -9.81,7.59 -3.88,1.63 -8.64,1.86 -14.29,0.67 -7.14,-1.49 -14.22,-5.35 -21.21,-11.6 -6.99,-6.26 -13.83,-13.84 -20.53,-22.77 -6.7,-8.93 -13.03,-18.83 -18.97,-29.69 -5.96,-10.87 -11.39,-21.81 -16.3,-32.81 -4.9,-11.01 -9.37,-21.66 -13.39,-31.92 -4.01,-10.27 -7.22,-19.28 -9.6,-27 z m 289.27,72.76 c 5.37,4.16 9.75,5.5 13.18,4.02 3.42,-1.5 6.47,-3.57 9.15,-6.25 -5.96,-12.21 -13.54,-25.38 -22.76,-39.51 -9.24,-14.14 -19.73,-28.42 -31.48,-42.86 -11.76,-14.44 -24.71,-28.72 -38.84,-42.86 -14.14,-14.13 -29.09,-27.16 -44.87,-39.06 -8.93,-6.54 -18.74,-13.24 -29.46,-20.08 -10.71,-6.86 -21.95,-13.03 -33.7,-18.53 -11.77,-5.51 -23.74,-10.04 -35.94,-13.61 -12.21,-3.58 -24.1,-5.37 -35.71,-5.37 -11.31,0 -22.7,2.38 -34.15,7.15 -11.47,4.76 -21.51,11.61 -30.13,20.53 -2.4,-11.31 -4.55,-22.17 -6.48,-32.58 -1.94,-10.42 -3.95,-19.93 -6.02,-28.57 -3.28,-15.77 -6.25,-30.2 -8.93,-43.31 -2.68,-13.09 -5.21,-26.03 -7.58,-38.84 -2.4,-12.78 -4.55,-25.95 -6.48,-39.5 -1.94,-13.54 -3.66,-28.35 -5.14,-44.42 -0.59,-4.47 -0.9,-8.63 -0.9,-12.5 0,-3.86 0,-7.58 0,-11.16 0,-8.93 0.37,-16.58 1.13,-22.99 0.74,-6.39 1.4,-11.53 2.01,-15.4 0.29,-2.08 0.51,-3.64 0.67,-4.69 0.14,-1.03 0.21,-2.46 0.21,-4.24 -0.59,-3.27 -1.78,-5.35 -3.57,-6.25 -1.78,-0.89 -3.87,-1.34 -6.24,-1.34 -10.41,0 -19.04,2.98 -25.9,8.93 -6.84,5.96 -12.42,13.84 -16.74,23.66 -4.3,9.82 -7.37,20.92 -9.15,33.26 -1.78,12.35 -2.68,24.92 -2.68,37.73 0,4.45 0.08,9.14 0.22,14.05 0.16,4.92 0.53,9.61 1.13,14.06 1.49,13.7 3.87,30.74 7.13,51.12 3.29,20.39 7.08,42.18 11.39,65.4 4.32,23.21 8.93,46.95 13.84,71.2 4.9,24.26 9.59,47.39 14.06,69.42 3.87,19.04 7.66,37.79 11.39,56.24 3.71,18.46 7.14,35.72 10.26,51.79 3.13,16.07 5.73,30.36 7.81,42.85 2.08,12.51 3.42,22.33 4.03,29.48 0.58,6.24 0.74,11.89 0.43,16.96 -0.29,5.06 -0.74,9.67 -1.33,13.83 -0.31,2.38 -0.53,4.53 -0.68,6.47 -0.14,1.95 -0.07,3.65 0.23,5.14 0.29,5.06 2.09,8.48 5.36,10.27 3.27,1.78 6.99,2.68 11.15,2.68 9.24,0 16.9,-1.72 23,-5.14 6.09,-3.42 11.01,-8.11 14.73,-14.06 3.71,-5.95 6.32,-12.88 7.81,-20.76 1.49,-7.89 2.23,-16.29 2.23,-25.22 0,-3.28 -0.08,-6.62 -0.22,-10.04 -0.15,-3.42 -0.37,-6.78 -0.66,-10.04 0,-1.5 -0.08,-3.29 -0.23,-5.37 -0.16,-2.08 -0.38,-3.87 -0.67,-5.35 6.54,12.5 13.76,24.61 21.65,36.39 7.89,11.74 16.51,22.37 25.89,31.91 9.38,9.51 19.27,17.78 29.69,24.77 10.41,6.99 21.43,11.98 33.04,14.96 3.26,0.89 6.54,1.49 9.81,1.78 3.28,0.3 6.54,0.45 9.83,0.45 10.72,0 20,-2.01 27.9,-6.02 7.88,-4.02 14.58,-9.45 20.08,-16.29 5.51,-6.86 9.98,-14.75 13.4,-23.66 3.42,-8.93 6.02,-18.17 7.81,-27.68 1.78,-9.83 2.68,-21.14 2.68,-33.94 0,-12.5 -0.9,-25.75 -2.68,-39.72 -1.79,-13.99 -4.47,-28.13 -8.04,-42.41 -3.56,-14.29 -8.03,-28.51 -13.39,-42.64 -5.35,-14.14 -11.6,-27.75 -18.75,-40.85 22.03,18.15 43.23,38.77 63.61,61.84 20.39,23.05 37.43,47.69 51.13,73.87 l 0.43,0.9" /><path
         id="path78"
         style="fill:#231f20;fill-opacity:1;fill-rule:nonzero;stroke:none"
         d="m 3899.93,2618.05 c -4.47,8.64 -9.82,12.95 -16.08,12.95 -5.66,0 -11.83,-2.67 -18.52,-8.04 -6.7,-5.35 -13.4,-12.35 -20.1,-20.97 -6.68,-8.64 -13.31,-18.31 -19.85,-29.03 -6.55,-10.71 -12.43,-21.43 -17.64,-32.14 -5.22,-10.71 -9.83,-20.91 -13.84,-30.57 -4.02,-9.68 -6.77,-17.64 -8.26,-23.88 10.12,1.17 21.88,4.46 35.27,9.81 13.4,5.37 26.27,12.35 38.62,20.98 12.34,8.64 22.98,18.6 31.91,29.91 8.93,11.31 13.99,23.66 15.18,37.06 1.19,11 -1.04,22.32 -6.69,33.92 z m -61.17,208.93 c 3.58,2.97 8.19,4.16 13.84,3.56 5.66,-0.59 10.86,-2.6 15.63,-6.02 4.76,-3.42 8.41,-8.11 10.94,-14.06 2.52,-5.95 2.45,-12.8 -0.22,-20.54 -2.68,-7.13 -7.23,-15.77 -13.62,-25.89 -6.41,-10.12 -13.83,-19.86 -22.33,-29.24 -8.48,-9.38 -17.62,-17.49 -27.45,-24.33 -9.82,-6.84 -19.34,-10.71 -28.56,-11.6 -5.96,-0.61 -11.69,0.29 -17.19,2.67 -5.52,2.39 -10.5,6.84 -14.95,13.39 -1.5,2.09 -1.06,2.83 1.33,2.24 2.38,-0.6 5.35,-0.15 8.93,1.34 9.82,4.46 18.59,11.3 26.33,20.53 7.74,9.22 14.58,19.2 20.54,29.91 5.95,10.72 11.17,21.35 15.63,31.92 4.47,10.57 8.18,19.27 11.15,26.12 z m 95.54,-369.64 c -8.03,-14.28 -16.96,-29.23 -26.79,-44.86 -9.82,-15.63 -21.06,-29.84 -33.7,-42.63 -12.66,-12.8 -27.08,-23.37 -43.31,-31.69 -16.22,-8.34 -34.74,-12.5 -55.57,-12.5 -15.47,0 -28.64,3.27 -39.5,9.81 -10.88,6.54 -19.65,15.25 -26.35,26.12 -6.69,10.86 -11.53,23.36 -14.5,37.49 -2.97,14.14 -4.47,28.95 -4.47,44.43 0,3.86 0,7.65 0,11.38 0,3.72 0.29,7.66 0.89,11.83 v -0.45 c 1.49,16.66 4.46,33.56 8.93,50.67 4.46,17.12 10.2,33.78 17.19,50 6.98,16.22 15.1,31.4 24.33,45.54 9.22,14.13 19.42,26.56 30.58,37.28 11.15,10.71 23.06,19.11 35.71,25.22 12.64,6.09 25.81,9.15 39.5,9.15 13.11,0 24.78,-2.84 35.05,-8.48 10.26,-5.67 18.9,-13.03 25.89,-22.1 6.99,-9.09 12.21,-19.36 15.63,-30.81 3.42,-11.45 4.84,-23.14 4.24,-35.03 -1.78,-16.68 -7.74,-32 -17.86,-45.99 -10.12,-13.99 -22.31,-26.34 -36.61,-37.06 -14.28,-10.71 -29.68,-19.64 -46.19,-26.78 -16.53,-7.14 -32.37,-12.35 -47.55,-15.62 -1.19,-5.06 -2.17,-10.27 -2.91,-15.63 -0.74,-5.35 -1.41,-11.01 -2,-16.96 -0.31,-2.38 -0.45,-4.84 -0.45,-7.36 0,-2.54 0,-5 0,-7.37 0,-6.56 0.51,-12.88 1.57,-18.97 1.03,-6.11 2.89,-11.62 5.57,-16.52 2.69,-4.91 6.4,-8.93 11.17,-12.06 4.75,-3.12 10.71,-4.98 17.86,-5.57 11.29,0.29 22.01,3.85 32.14,10.71 10.11,6.84 19.56,15.25 28.34,25.22 8.78,9.97 16.81,20.69 24.11,32.14 7.29,11.45 13.76,21.94 19.42,31.47 v -0.44 c 7.14,12.5 13.76,24.77 19.86,36.82 6.09,12.06 11.68,23 16.74,32.82 2.38,4.46 5.06,9.52 8.03,15.18 2.98,5.65 5.66,10.55 8.05,14.73 3.57,1.49 5.8,2.23 6.68,2.23 2.69,0 4.84,-0.82 6.48,-2.46 1.64,-1.64 3.05,-3.65 4.24,-6.02 l -4.45,-9.82 c -5.37,-11.02 -12,-24.19 -19.87,-39.51 -7.89,-15.33 -16.6,-31.18 -26.12,-47.55" /><path
         id="path80"
         style="fill:#231f20;fill-opacity:1;fill-rule:nonzero;stroke:none"
         d="m 4149.91,2618.05 c -4.46,8.64 -9.81,12.95 -16.08,12.95 -5.65,0 -11.82,-2.67 -18.52,-8.04 -6.7,-5.35 -13.39,-12.35 -20.09,-20.97 -6.69,-8.64 -13.32,-18.31 -19.86,-29.03 -6.55,-10.71 -12.43,-21.43 -17.63,-32.14 -5.22,-10.71 -9.83,-20.91 -13.85,-30.57 -4.01,-9.68 -6.76,-17.64 -8.25,-23.88 10.11,1.17 21.87,4.46 35.27,9.81 13.39,5.37 26.26,12.35 38.61,20.98 12.34,8.64 22.99,18.6 31.92,29.91 8.93,11.31 13.99,23.66 15.18,37.06 1.19,11 -1.04,22.32 -6.7,33.92 z m 34.38,-160.71 c -8.04,-14.28 -16.97,-29.23 -26.8,-44.86 -9.81,-15.63 -21.05,-29.84 -33.7,-42.63 -12.65,-12.8 -27.08,-23.37 -43.3,-31.69 -16.22,-8.34 -34.75,-12.5 -55.58,-12.5 -15.47,0 -28.64,3.27 -39.5,9.81 -10.87,6.54 -19.64,15.25 -26.34,26.12 -6.7,10.86 -11.53,23.36 -14.51,37.49 -2.97,14.14 -4.46,28.95 -4.46,44.43 0,3.86 0,7.65 0,11.38 0,3.72 0.29,7.66 0.88,11.83 v -0.45 c 1.5,16.66 4.47,33.56 8.93,50.67 4.47,17.12 10.2,33.78 17.19,50 6.99,16.22 15.1,31.4 24.34,45.54 9.22,14.13 19.42,26.56 30.58,37.28 11.15,10.71 23.05,19.11 35.71,25.22 12.64,6.09 25.81,9.15 39.5,9.15 13.1,0 24.78,-2.84 35.05,-8.48 10.26,-5.67 18.9,-13.03 25.89,-22.1 6.99,-9.09 12.2,-19.36 15.63,-30.81 3.42,-11.45 4.83,-23.14 4.24,-35.03 -1.79,-16.68 -7.74,-32 -17.86,-45.99 -10.12,-13.99 -22.32,-26.34 -36.61,-37.06 -14.28,-10.71 -29.69,-19.64 -46.2,-26.78 -16.53,-7.14 -32.36,-12.35 -47.54,-15.62 -1.19,-5.06 -2.17,-10.27 -2.91,-15.63 -0.74,-5.35 -1.41,-11.01 -2.01,-16.96 -0.3,-2.38 -0.45,-4.84 -0.45,-7.36 0,-2.54 0,-5 0,-7.37 0,-6.56 0.52,-12.88 1.57,-18.97 1.04,-6.11 2.9,-11.62 5.58,-16.52 2.68,-4.91 6.39,-8.93 11.16,-12.06 4.76,-3.12 10.72,-4.98 17.86,-5.57 11.3,0.29 22.01,3.85 32.14,10.71 10.11,6.84 19.57,15.25 28.34,25.22 8.79,9.97 16.82,20.69 24.11,32.14 7.29,11.45 13.77,21.94 19.42,31.47 v -0.44 c 7.15,12.5 13.77,24.77 19.87,36.82 6.09,12.06 11.68,23 16.74,32.82 2.38,4.46 5.06,9.52 8.03,15.18 2.97,5.65 5.65,10.55 8.05,14.73 3.56,1.49 5.8,2.23 6.68,2.23 2.68,0 4.84,-0.82 6.47,-2.46 1.64,-1.64 3.05,-3.65 4.24,-6.02 l -4.45,-9.82 c -5.36,-11.02 -11.99,-24.19 -19.87,-39.51 -7.88,-15.33 -16.59,-31.18 -26.11,-47.55" /><path
         id="path82"
         style="fill:#99d761;fill-opacity:1;fill-rule:nonzero;stroke:none"
         d="m 3198.95,1994.51 c -16.57,-32.11 -56.03,-44.72 -88.14,-28.16 -32.11,16.57 -44.72,56.03 -28.15,88.14 16.56,32.11 56.02,44.72 88.13,28.15 32.11,-16.56 44.72,-56.02 28.16,-88.13" /><path
         id="path84"
         style="fill:#99d761;fill-opacity:1;fill-rule:nonzero;stroke:none"
         d="m 3632.24,1975.91 c -22.98,-44.56 -77.73,-62.04 -122.28,-39.06 -44.56,22.98 -62.04,77.72 -39.06,122.28 22.98,44.55 77.72,62.04 122.28,39.06 44.55,-22.98 62.04,-77.73 39.06,-122.28" /><path
         id="path86"
         style="fill:#99d761;fill-opacity:1;fill-rule:nonzero;stroke:none"
         d="m 4132.22,1987.64 c -14.43,-27.97 -48.8,-38.95 -76.77,-24.53 -27.97,14.43 -38.95,48.8 -24.53,76.78 14.43,27.97 48.8,38.95 76.78,24.52 27.97,-14.43 38.95,-48.8 24.52,-76.77" /><path
         id="path88"
         style="fill:#c8171e;fill-opacity:1;fill-rule:nonzero;stroke:none"
         d="m 3651.74,2130.52 c -11.04,-21.4 -37.33,-29.8 -58.73,-18.77 -21.4,11.04 -29.8,37.34 -18.77,58.74 11.04,21.4 37.34,29.8 58.74,18.76 21.4,-11.04 29.8,-37.33 18.76,-58.73" /><path
         id="path90"
         style="fill:#32682d;fill-opacity:1;fill-rule:nonzero;stroke:none"
         d="m 3747.73,1990.1 c -18.09,-35.08 -61.2,-48.85 -96.28,-30.76 -35.08,18.1 -48.86,61.2 -30.76,96.28 18.09,35.09 61.2,48.86 96.28,30.76 35.09,-18.09 48.86,-61.2 30.76,-96.28" /><path
         id="path92"
         style="fill:#99d761;fill-opacity:1;fill-rule:nonzero;stroke:none"
         d="m 3790.4,2132.1 c -15.92,-30.87 -53.86,-42.99 -84.73,-27.06 -30.87,15.92 -42.99,53.85 -27.07,84.73 15.93,30.87 53.86,42.99 84.73,27.06 30.88,-15.92 42.99,-53.86 27.07,-84.73" /><path
         id="path94"
         style="fill:#99d761;fill-opacity:1;fill-rule:nonzero;stroke:none"
         d="m 3270.68,2124.48 c -8.79,-17.05 -29.75,-23.75 -46.8,-14.95 -17.06,8.8 -23.75,29.75 -14.96,46.81 8.8,17.05 29.76,23.75 46.81,14.95 17.06,-8.8 23.75,-29.75 14.95,-46.81" /><path
         id="path96"
         style="fill:#99d761;fill-opacity:1;fill-rule:nonzero;stroke:none"
         d="m 3935.44,1964.23 c -14.25,-31.67 -51.49,-45.8 -83.16,-31.55 -31.68,14.26 -45.81,51.49 -31.55,83.17 14.25,31.68 51.48,45.8 83.16,31.55 31.68,-14.26 45.8,-51.49 31.55,-83.17" /><path
         id="path98"
         style="fill:#c8171e;fill-opacity:1;fill-rule:nonzero;stroke:none"
         d="m 3320.6,2017.97 c -12.39,-24.03 -41.92,-33.47 -65.95,-21.07 -24.03,12.39 -33.46,41.92 -21.07,65.95 12.4,24.03 41.92,33.47 65.96,21.07 24.03,-12.39 33.46,-41.92 21.06,-65.95" /><path
         id="path100"
         style="fill:#c8171e;fill-opacity:1;fill-rule:nonzero;stroke:none"
         d="m 3898.28,2084.49 c -12.4,-24.03 -41.93,-33.46 -65.96,-21.07 -24.03,12.4 -33.46,41.93 -21.07,65.96 12.4,24.03 41.93,33.46 65.96,21.07 24.03,-12.4 33.46,-41.93 21.07,-65.96" /><path
         id="path102"
         style="fill:#32682d;fill-opacity:1;fill-rule:nonzero;stroke:none"
         d="m 3163.86,2156.17 c -12.4,-24.03 -41.92,-33.46 -65.96,-21.07 -24.03,12.4 -33.46,41.93 -21.06,65.96 12.39,24.03 41.92,33.46 65.95,21.07 24.03,-12.4 33.46,-41.93 21.07,-65.96" /><path
         id="path104"
         style="fill:#32682d;fill-opacity:1;fill-rule:nonzero;stroke:none"
         d="m 3642.5,2290.42 c -11.3,-21.93 -38.25,-30.53 -60.17,-19.22 -21.93,11.31 -30.53,38.25 -19.23,60.17 11.31,21.93 38.26,30.54 60.18,19.23 21.93,-11.31 30.53,-38.25 19.22,-60.18" /><path
         id="path106"
         style="fill:#32682d;fill-opacity:1;fill-rule:nonzero;stroke:none"
         d="m 3355.79,2017.06 c -18.22,21.55 -15.52,53.8 6.03,72.02 21.55,18.23 53.79,15.53 72.02,-6.02 18.22,-21.55 15.52,-53.8 -6.03,-72.02 -21.55,-18.23 -53.79,-15.53 -72.02,6.02" /><path
         id="path108"
         style="fill:#32682d;fill-opacity:1;fill-rule:nonzero;stroke:none"
         d="m 3485.76,2118.81 c -4.52,-8.77 -15.3,-12.21 -24.07,-7.69 -8.77,4.53 -12.21,15.31 -7.69,24.08 4.53,8.77 15.3,12.21 24.07,7.68 8.77,-4.52 12.22,-15.3 7.69,-24.07" /><path
         id="path110"
         style="fill:#c8171e;fill-opacity:1;fill-rule:nonzero;stroke:none"
         d="m 3805.44,2048.35 c -5.88,-11.4 -19.89,-15.88 -31.29,-10 -11.4,5.88 -15.88,19.89 -10,31.29 5.88,11.41 19.89,15.88 31.29,10 11.41,-5.88 15.88,-19.89 10,-31.29" /><path
         id="path112"
         style="fill:#32682d;fill-opacity:1;fill-rule:nonzero;stroke:none"
         d="m 3421.48,2203.49 c -3.98,-7.72 -13.47,-10.75 -21.18,-6.77 -7.72,3.98 -10.75,13.46 -6.77,21.18 3.98,7.72 13.46,10.75 21.18,6.77 7.72,-3.98 10.75,-13.47 6.77,-21.18" /><path
         id="path114"
         style="fill:#c8171e;fill-opacity:1;fill-rule:nonzero;stroke:none"
         d="m 3455.78,1966.27 c -5.34,-10.35 -18.06,-14.42 -28.41,-9.08 -10.34,5.34 -14.41,18.06 -9.07,28.41 5.34,10.34 18.06,14.41 28.41,9.07 10.34,-5.34 14.41,-18.06 9.07,-28.4" /><path
         id="path116"
         style="fill:#32682d;fill-opacity:1;fill-rule:nonzero;stroke:none"
         d="m 3801.09,1977.53 c -5.34,-10.35 -18.05,-14.42 -28.4,-9.08 -10.35,5.34 -14.41,18.06 -9.08,28.41 5.34,10.35 18.06,14.41 28.41,9.07 10.35,-5.34 14.41,-18.06 9.07,-28.4" /><path
         id="path118"
         style="fill:#c8171e;fill-opacity:1;fill-rule:nonzero;stroke:none"
         d="m 4080.17,2093.36 c -6.42,-12.45 -21.73,-17.34 -34.18,-10.92 -12.46,6.43 -17.34,21.73 -10.92,34.18 6.42,12.46 21.73,17.35 34.18,10.92 12.45,-6.42 17.34,-21.72 10.92,-34.18" /><path
         id="path120"
         style="fill:#32682d;fill-opacity:1;fill-rule:nonzero;stroke:none"
         d="m 4019.7,2038.71 c -12.4,-24.03 -41.93,-33.47 -65.96,-21.07 -24.03,12.39 -33.46,41.92 -21.07,65.95 12.4,24.03 41.93,33.47 65.96,21.07 24.03,-12.39 33.46,-41.92 21.07,-65.95" /><path
         id="path122"
         style="fill:#c8171e;fill-opacity:1;fill-rule:nonzero;stroke:none"
         d="m 4014.44,1972.06 c -6.43,-12.45 -21.73,-17.34 -34.19,-10.92 -12.45,6.43 -17.34,21.73 -10.91,34.18 6.42,12.46 21.72,17.35 34.18,10.92 12.45,-6.42 17.34,-21.72 10.92,-34.18" /><path
         id="path124"
         style="fill:#32682d;fill-opacity:1;fill-rule:nonzero;stroke:none"
         d="m 3020.29,2119.36 c 26.61,-4.8 44.29,-30.26 39.49,-56.87 -4.8,-26.61 -30.26,-44.29 -56.87,-39.49 -26.61,4.8 -44.29,30.26 -39.49,56.87 4.8,26.61 30.26,44.29 56.87,39.49" /><path
         id="path126"
         style="fill:#32682d;fill-opacity:1;fill-rule:nonzero;stroke:none"
         d="m 3365.76,1965.85 c -6.16,-11.93 -20.81,-16.61 -32.74,-10.46 -11.93,6.15 -16.61,20.81 -10.46,32.74 6.15,11.93 20.81,16.61 32.74,10.46 11.93,-6.16 16.61,-20.81 10.46,-32.74" /><path
         id="path128"
         style="fill:#231f20;fill-opacity:1;fill-rule:nonzero;stroke:none"
         d="m 1993.93,2128.13 c -3.53,-2.15 -7.14,-5.1 -10.81,-8.85 -3.68,-3.76 -6.97,-7.71 -9.89,-11.85 -2.14,-8.12 -4.26,-16.06 -6.32,-23.8 -2.07,-7.75 -3.95,-15.53 -5.64,-23.35 5.99,1.07 11.92,4.26 17.82,9.55 5.91,5.29 11.19,11.31 15.87,18.05 4.68,6.75 8.47,13.61 11.39,20.58 2.9,6.98 4.37,12.7 4.37,17.14 0,4.75 -1.69,7.13 -5.06,7.13 -2.46,0 -6.37,-1.53 -11.73,-4.6 z m 1.83,81.18 c -1.07,-10.58 -3.06,-22.61 -5.97,-36.1 -2.92,-13.5 -6.29,-27.6 -10.12,-42.32 5.97,5.83 12.49,10.35 19.54,13.57 3.99,1.84 7.86,3.17 11.61,4.02 3.77,0.84 7.26,1.27 10.48,1.27 7.66,0 13.67,-2.5 18.05,-7.48 4.37,-4.98 6.32,-11.84 5.86,-20.58 -0.92,-8.13 -3.49,-16.37 -7.7,-24.72 -4.23,-8.36 -9.47,-16.03 -15.76,-23 -6.29,-6.98 -13.33,-12.96 -21.15,-17.94 -7.82,-4.98 -15.8,-8.17 -23.93,-9.54 0.47,-1.39 1.35,-3.61 2.66,-6.67 1.29,-3.07 2.87,-6.47 4.7,-10.24 1.85,-3.75 3.87,-7.62 6.11,-11.61 2.22,-3.99 4.59,-7.66 7.12,-11.03 2.53,-3.38 5.1,-6.19 7.71,-8.4 2.6,-2.22 5.13,-3.41 7.58,-3.56 2,-0.32 4.26,0.91 6.8,3.67 2.52,2.77 5.24,6.6 8.16,11.5 2.91,4.91 6.05,10.74 9.42,17.48 3.37,6.75 6.97,14.03 10.8,21.85 3.23,6.89 6.83,14.45 10.82,22.65 3.98,8.21 8.27,16.67 12.87,25.41 1.69,0.62 3.34,0.8 4.96,0.58 1.61,-0.23 2.86,-1.57 3.79,-4.03 -4.45,-8.89 -8.55,-17.44 -12.3,-25.64 -3.77,-8.21 -7.25,-15.75 -10.46,-22.65 -4.15,-8.74 -8.1,-16.91 -11.85,-24.49 -3.76,-7.6 -7.4,-14.27 -10.93,-20.01 -3.53,-5.75 -7.01,-10.39 -10.46,-13.91 -3.45,-3.53 -6.86,-5.75 -10.24,-6.68 -6.29,-1.22 -12.46,-0.34 -18.51,2.65 -6.05,3 -11.73,7.05 -17.01,12.19 -5.29,5.14 -9.94,10.81 -13.92,17.02 -3.99,6.2 -7.05,11.91 -9.2,17.13 -0.7,-4.29 -1.27,-8.05 -1.69,-11.27 -0.43,-3.22 -0.78,-6.75 -1.06,-10.58 -0.16,-1.37 -0.28,-2.64 -0.36,-3.79 -0.08,-1.15 -0.1,-2.34 -0.1,-3.57 0,-3.67 0.26,-6.86 0.8,-9.54 0.53,-2.68 1.03,-4.79 1.5,-6.33 v 0.24 c 0.46,-1.38 0.68,-2.53 0.68,-3.46 0,-2.14 -1.77,-3.21 -5.31,-3.21 -5.56,0 -10.16,1.19 -13.78,3.57 -3.63,2.36 -6.52,5.51 -8.69,9.42 -2.17,3.91 -3.67,8.28 -4.52,13.12 -0.84,4.82 -1.28,9.76 -1.28,14.82 0,1.69 0.04,3.3 0.12,4.83 0.08,1.54 0.2,3.15 0.34,4.82 0.47,5.38 1.47,12.28 3,20.71 1.52,8.42 3.37,17.71 5.51,27.83 2.15,10.12 4.57,20.77 7.25,31.96 2.68,11.19 5.33,22.23 7.93,33.12 1.99,8.74 3.95,17.21 5.87,25.41 1.91,8.19 3.64,15.75 5.17,22.65 1.54,6.91 2.76,12.92 3.68,18.06 0.92,5.14 1.53,9.07 1.85,11.83 0.14,2.62 0.1,4.84 -0.12,6.67 -0.23,1.84 -0.5,3.45 -0.81,4.84 -0.16,0.77 -0.26,1.49 -0.34,2.18 -0.08,0.69 -0.12,1.41 -0.12,2.18 0.3,2.15 1.27,3.53 2.88,4.15 1.61,0.6 3.57,0.91 5.86,0.91 5.98,0 10.77,-0.91 14.38,-2.75 3.59,-1.85 6.31,-4.25 8.16,-7.25 1.84,-2.99 2.99,-6.4 3.45,-10.23 0.46,-3.84 0.53,-7.75 0.22,-11.73" /><path
         id="path130"
         style="fill:#231f20;fill-opacity:1;fill-rule:nonzero;stroke:none"
         d="m 2131.91,2101.45 c 0,-6.44 0.37,-13.19 1.15,-20.23 0.77,-7.05 2.26,-13.62 4.48,-19.67 2.22,-6.05 5.3,-11.27 9.2,-15.64 3.91,-4.36 9.08,-7.16 15.53,-8.39 2.91,4.76 5.63,10 8.17,15.75 2.52,5.76 4.78,11.65 6.77,17.71 2,6.05 3.65,12.26 4.94,18.63 1.31,6.35 2.2,12.54 2.66,18.51 0.3,2.15 0.45,4.17 0.45,6.1 0,1.92 0,3.86 0,5.85 0,6.6 -0.57,12.8 -1.72,18.64 -1.15,5.82 -2.92,10.88 -5.3,15.17 -2.37,4.29 -5.44,7.71 -9.19,10.24 -3.75,2.53 -8.17,3.79 -13.23,3.79 -3.52,0 -6.63,-1.26 -9.31,-3.79 -2.68,-2.53 -4.94,-5.95 -6.78,-10.24 -1.85,-4.29 -3.3,-9.27 -4.37,-14.94 -1.08,-5.68 -1.91,-11.57 -2.53,-17.72 -0.31,-2.74 -0.55,-5.82 -0.69,-9.19 -0.16,-3.37 -0.23,-6.9 -0.23,-10.58 z m 20.93,-76.81 c -7.68,2.3 -14.27,5.32 -19.78,9.09 -5.52,3.75 -10.12,8.16 -13.8,13.22 -3.67,5.06 -6.55,10.65 -8.63,16.78 -2.06,6.14 -3.49,12.74 -4.25,19.79 -0.45,-2.46 -0.81,-4.99 -1.03,-7.6 -0.23,-2.6 -0.51,-5.21 -0.81,-7.82 -0.46,-4.9 -0.69,-9.65 -0.69,-14.25 0,-5.68 0.35,-11.15 1.03,-16.45 0.69,-5.28 1.88,-9.96 3.57,-14.03 1.69,-4.05 3.91,-7.32 6.67,-9.76 2.76,-2.46 6.13,-3.69 10.12,-3.69 5.21,0 10.04,1.23 14.49,3.69 4.44,2.44 8.82,6.13 13.11,11.03 z m -45.54,-41.16 c -8.73,0 -16.02,2.33 -21.85,7.01 -5.82,4.68 -10.54,10.62 -14.13,17.82 -3.61,7.21 -6.15,15.18 -7.6,23.93 -1.45,8.73 -2.18,17.24 -2.18,25.52 0,2.3 0,4.56 0,6.78 0,2.23 0.15,4.25 0.46,6.1 0.61,7.36 1.46,14.17 2.53,20.46 1.07,6.29 2.45,11.65 4.13,16.11 3.07,3.67 6.63,6.35 10.7,8.04 4.06,1.68 8.24,2.53 12.54,2.53 2.44,0 4.94,-0.31 7.46,-0.92 2.54,-0.62 4.88,-1.46 7.02,-2.53 0.76,8.12 2.11,16.22 4.03,24.27 1.91,8.04 4.75,15.28 8.5,21.73 3.76,6.43 8.67,11.65 14.72,15.64 6.06,3.97 13.69,5.97 22.88,5.97 7.52,0 13.93,-1.57 19.21,-4.72 5.28,-3.14 9.66,-7.39 13.11,-12.76 3.44,-5.36 5.98,-11.73 7.59,-19.09 1.6,-7.36 2.41,-15.26 2.41,-23.68 0,-4.6 -0.23,-8.97 -0.69,-13.11 v 0.23 c -1.23,-11.96 -3.75,-24.22 -7.58,-36.8 -3.85,-12.57 -8.67,-24.37 -14.5,-35.41 5.99,1.22 11.27,3.48 15.87,6.79 4.6,3.29 8.81,7.27 12.66,11.95 3.83,4.68 7.31,9.82 10.46,15.41 3.13,5.6 6.17,11.22 9.07,16.9 l 5.06,9.2 c 0.77,0.3 1.5,0.61 2.2,0.92 0.68,0.31 1.25,0.47 1.71,0.47 0.77,0 1.54,-0.32 2.3,-0.93 0.77,-0.61 1.39,-1.83 1.85,-3.67 -2.61,-6.14 -5.98,-13.16 -10.12,-21.05 -4.15,-7.9 -9.05,-15.37 -14.73,-22.43 -5.66,-7.05 -12.14,-13.1 -19.43,-18.16 -7.28,-5.06 -15.36,-7.82 -24.25,-8.27 -3.99,-5.99 -8.25,-11.43 -12.77,-16.33 -4.53,-4.91 -9.39,-9.13 -14.61,-12.66 -5.2,-3.52 -10.65,-6.28 -16.33,-8.28 -5.66,-1.99 -11.57,-2.98 -17.7,-2.98" /><path
         id="path132"
         style="fill:#231f20;fill-opacity:1;fill-rule:nonzero;stroke:none"
         d="m 2262.77,2099.85 c -0.47,-1.69 -0.89,-3.3 -1.27,-4.84 -0.39,-1.53 -0.73,-2.98 -1.03,-4.37 1.83,2.6 3.63,5.36 5.4,8.28 1.76,2.91 3.71,5.91 5.87,8.97 4.13,6.44 8.42,12.91 12.88,19.44 4.43,6.51 9.11,12.41 14.01,17.7 4.92,5.3 10.08,9.58 15.52,12.88 5.45,3.29 11.23,4.94 17.38,4.94 4.29,0 7.82,-0.73 10.58,-2.18 2.75,-1.45 4.94,-3.45 6.55,-5.98 1.6,-2.53 2.64,-5.55 3.11,-9.08 0.44,-3.53 0.52,-7.36 0.22,-11.51 -0.77,-8.58 -2.76,-18.2 -5.98,-28.85 -3.21,-10.66 -6.82,-21.36 -10.81,-32.09 -3.37,-9.81 -6.51,-19.47 -9.42,-28.97 -2.92,-9.51 -4.76,-17.56 -5.52,-24.15 0,-1.53 0.02,-3.33 0.1,-5.4 0.08,-2.07 0.28,-4.03 0.59,-5.87 0.3,-1.83 0.84,-3.36 1.61,-4.59 0.76,-1.23 1.75,-1.84 2.98,-1.84 2.16,0 4.98,1.88 8.51,5.63 3.53,3.75 7.32,8.55 11.39,14.37 4.05,5.83 8.16,12.26 12.3,19.32 4.15,7.05 8.06,13.88 11.73,20.47 3.68,6.58 6.89,12.49 9.66,17.7 2.76,5.21 4.75,8.97 5.98,11.27 0,0.47 0.22,0.93 0.69,1.38 l 0.92,1.85 c 0.77,1.37 1.45,2.52 2.06,3.44 0.62,0.93 1.77,1.38 3.45,1.38 1.53,0 2.72,-0.42 3.57,-1.26 0.84,-0.84 1.57,-1.89 2.19,-3.1 -1.08,-1.85 -2.27,-4.07 -3.57,-6.67 -1.3,-2.62 -2.57,-5.22 -3.79,-7.82 -3.08,-5.99 -6.41,-12.54 -10.01,-19.67 -3.6,-7.12 -7.44,-14.26 -11.5,-21.38 -4.06,-7.13 -8.32,-14.03 -12.76,-20.7 -4.45,-6.67 -9.01,-12.62 -13.68,-17.82 -4.68,-5.22 -9.4,-9.35 -14.15,-12.42 -4.74,-3.08 -9.5,-4.6 -14.26,-4.6 -5.36,0 -9.85,0.8 -13.44,2.41 -3.61,1.61 -6.49,3.8 -8.63,6.55 -2.15,2.76 -3.73,6.06 -4.72,9.89 -1,3.84 -1.49,8.05 -1.49,12.65 0,0.92 0,1.99 0,3.22 0,1.23 0.08,2.38 0.22,3.45 0.63,5.98 1.81,12.34 3.57,19.09 1.76,6.75 3.71,13.64 5.87,20.7 2.14,7.04 4.49,13.99 7.01,20.81 2.54,6.83 4.94,13.22 7.24,19.2 3.07,8.29 5.79,15.65 8.17,22.08 2.37,6.43 3.72,11.19 4.02,14.25 0.15,2.76 -0.54,4.15 -2.07,4.15 -2.76,0 -5.94,-1.5 -9.54,-4.49 -3.6,-2.99 -7.44,-6.9 -11.49,-11.73 -4.07,-4.82 -8.17,-10.23 -12.31,-16.21 -4.14,-5.98 -8.13,-12 -11.96,-18.05 -3.83,-6.06 -7.32,-11.77 -10.46,-17.13 -3.15,-5.38 -5.79,-9.82 -7.94,-13.34 v 0.22 l -3.67,-6.43 h 0.22 c -2.6,-6.29 -4.82,-13.45 -6.67,-21.51 -1.84,-8.04 -3.07,-15.67 -3.67,-22.88 -0.16,-1.23 -0.24,-2.42 -0.24,-3.57 0,-1.15 0,-2.34 0,-3.55 0,-3.69 0.24,-6.83 0.7,-9.43 0.45,-2.62 0.91,-4.76 1.37,-6.45 0.47,-1.37 0.69,-2.44 0.69,-3.21 0,-2.15 -1.69,-3.22 -5.06,-3.22 -5.51,0 -10.12,1.11 -13.79,3.33 -3.69,2.23 -6.55,5.13 -8.63,8.74 -2.07,3.59 -3.53,7.7 -4.37,12.3 -0.83,4.6 -1.26,9.27 -1.26,14.03 0,1.53 0.04,3.07 0.11,4.6 0.08,1.53 0.2,3.14 0.34,4.83 0.47,5.06 1.13,10.35 1.96,15.87 0.84,5.52 1.85,11.07 3,16.67 1.15,5.6 2.4,11.07 3.79,16.45 1.37,5.36 2.68,10.5 3.91,15.4 2.14,8.28 4.01,16.03 5.63,23.23 1.61,7.21 2.65,13.42 3.1,18.62 0.16,2.46 0.12,4.61 -0.1,6.45 -0.24,1.84 -0.51,3.53 -0.81,5.06 -0.16,0.77 -0.28,1.45 -0.34,2.06 -0.08,0.62 -0.12,1.23 -0.12,1.85 0.14,2.14 1.11,3.59 2.86,4.36 1.77,0.77 3.73,1.16 5.87,1.16 5.83,0 10.5,-0.96 14.03,-2.88 3.53,-1.91 6.25,-4.41 8.16,-7.48 1.92,-3.06 3.15,-6.47 3.69,-10.23 0.53,-3.76 0.65,-7.55 0.34,-11.38 -0.3,-4.15 -0.88,-8.32 -1.73,-12.53 -0.84,-4.22 -1.79,-8.17 -2.86,-11.84" /><path
         id="path134"
         style="fill:#231f20;fill-opacity:1;fill-rule:nonzero;stroke:none"
         d="m 2500.78,2044.88 c -4.13,-7.36 -8.74,-15.06 -13.8,-23.11 -5.06,-8.06 -10.85,-15.37 -17.36,-21.97 -6.51,-6.59 -13.95,-12.03 -22.3,-16.32 -8.36,-4.3 -17.92,-6.44 -28.64,-6.44 -7.97,0 -14.76,1.69 -20.35,5.06 -5.6,3.37 -10.12,7.85 -13.56,13.45 -3.47,5.6 -5.95,12.03 -7.48,19.31 -1.53,7.28 -2.3,14.92 -2.3,22.88 0,2 0,3.95 0,5.87 0,1.92 0.15,3.95 0.46,6.1 v -0.23 c 0.77,8.58 2.3,17.29 4.6,26.1 2.3,8.81 5.24,17.4 8.85,25.76 3.59,8.35 7.78,16.17 12.54,23.45 4.74,7.28 10,13.69 15.75,19.21 5.74,5.52 11.87,9.84 18.4,12.98 6.51,3.15 13.29,4.72 20.34,4.72 6.75,0 12.76,-1.57 18.06,-4.72 5.29,-3.14 9.74,-7.23 13.34,-12.29 3.6,-5.06 6.24,-10.77 7.93,-17.14 1.69,-6.35 2.3,-12.76 1.84,-19.19 -0.15,-1.39 -0.35,-2.92 -0.57,-4.61 -0.24,-1.68 -0.62,-3.29 -1.15,-4.83 -0.54,-1.53 -1.39,-2.8 -2.54,-3.79 -1.15,-1 -2.72,-1.49 -4.71,-1.49 -0.77,0.14 -1.5,0.37 -2.18,0.69 -0.69,0.3 -1.5,0.91 -2.42,1.83 0.62,2.14 1.11,4.18 1.49,6.09 0.38,1.92 0.66,3.73 0.81,5.41 0.16,3.22 0.08,6.4 -0.23,9.55 -0.3,3.14 -0.92,5.93 -1.83,8.39 -0.93,2.45 -2.12,4.45 -3.57,5.98 -1.47,1.53 -3.18,2.3 -5.18,2.3 -3.06,0 -6.47,-1.53 -10.22,-4.6 -3.77,-3.08 -7.56,-7.21 -11.39,-12.42 -3.83,-5.21 -7.68,-11.27 -11.51,-18.16 -3.83,-6.91 -7.32,-14.15 -10.46,-21.75 -3.14,-7.58 -5.89,-15.36 -8.27,-23.33 -2.38,-7.98 -4.11,-15.56 -5.18,-22.77 -0.16,-1.23 -0.26,-2.56 -0.34,-4.02 -0.08,-1.46 -0.12,-2.8 -0.12,-4.03 0,-3.68 0.3,-7.13 0.92,-10.34 0.61,-3.22 1.61,-6.1 2.99,-8.63 1.39,-2.53 3.22,-4.53 5.52,-5.98 2.3,-1.45 5.21,-2.18 8.73,-2.18 5.99,0 11.65,1.72 17.03,5.16 5.37,3.47 10.35,7.75 14.94,12.88 4.6,5.14 8.81,10.71 12.66,16.68 3.83,5.98 7.28,11.5 10.34,16.56 v -0.24 c 3.68,6.45 7.1,12.77 10.24,18.98 3.13,6.2 6.01,11.85 8.61,16.91 1.23,2.29 2.62,4.9 4.15,7.82 1.54,2.9 2.91,5.44 4.14,7.58 1.83,0.76 2.98,1.15 3.45,1.15 1.38,0 2.49,-0.42 3.34,-1.26 0.83,-0.84 1.57,-1.89 2.18,-3.1 l -2.3,-5.06 c -2.76,-5.68 -6.17,-12.46 -10.24,-20.36 -4.05,-7.9 -8.55,-16.06 -13.45,-24.49" /><path
         id="path136"
         style="fill:#231f20;fill-opacity:1;fill-rule:nonzero;stroke:none"
         d="m 2610.7,2127.67 c -2.3,4.44 -5.06,6.67 -8.27,6.67 -2.92,0 -6.11,-1.39 -9.56,-4.15 -3.44,-2.74 -6.89,-6.35 -10.34,-10.8 -3.45,-4.46 -6.87,-9.42 -10.24,-14.94 -3.37,-5.53 -6.39,-11.05 -9.07,-16.57 -2.69,-5.51 -5.06,-10.77 -7.14,-15.75 -2.07,-4.98 -3.49,-9.09 -4.25,-12.3 5.2,0.61 11.27,2.3 18.16,5.06 6.9,2.75 13.53,6.36 19.9,10.81 6.35,4.44 11.85,9.58 16.45,15.4 4.59,5.83 7.2,12.2 7.82,19.09 0.6,5.67 -0.55,11.5 -3.46,17.48 z m 17.71,-82.79 c -4.13,-7.36 -8.74,-15.06 -13.8,-23.11 -5.06,-8.06 -10.85,-15.37 -17.36,-21.97 -6.52,-6.59 -13.95,-12.03 -22.3,-16.32 -8.37,-4.3 -17.92,-6.44 -28.64,-6.44 -7.97,0 -14.76,1.69 -20.35,5.06 -5.6,3.37 -10.12,7.85 -13.57,13.45 -3.46,5.6 -5.94,12.03 -7.47,19.31 -1.54,7.28 -2.3,14.92 -2.3,22.88 0,2 0,3.95 0,5.87 0,1.92 0.14,3.95 0.46,6.1 v -0.23 c 0.77,8.58 2.3,17.29 4.6,26.1 2.3,8.81 5.24,17.4 8.85,25.76 3.59,8.35 7.78,16.17 12.54,23.45 4.74,7.28 10,13.69 15.74,19.21 5.75,5.52 11.88,9.84 18.41,12.98 6.51,3.15 13.29,4.72 20.34,4.72 6.75,0 12.76,-1.45 18.06,-4.36 5.28,-2.92 9.74,-6.71 13.34,-11.39 3.6,-4.67 6.28,-9.97 8.05,-15.86 1.75,-5.91 2.48,-11.93 2.18,-18.06 -0.91,-8.59 -3.99,-16.48 -9.2,-23.69 -5.22,-7.2 -11.5,-13.57 -18.86,-19.09 -7.36,-5.52 -15.29,-10.12 -23.79,-13.79 -8.51,-3.69 -16.68,-6.37 -24.5,-8.05 -0.62,-2.61 -1.12,-5.29 -1.49,-8.05 -0.4,-2.76 -0.74,-5.67 -1.04,-8.74 -0.15,-1.22 -0.23,-2.49 -0.23,-3.79 0,-1.31 0,-2.57 0,-3.8 0,-3.37 0.27,-6.63 0.81,-9.78 0.53,-3.14 1.49,-5.97 2.86,-8.51 1.39,-2.52 3.31,-4.59 5.76,-6.2 2.45,-1.62 5.51,-2.57 9.2,-2.87 5.82,0.14 11.35,1.98 16.55,5.52 5.22,3.51 10.08,7.85 14.61,12.99 4.52,5.14 8.66,10.66 12.42,16.55 3.75,5.9 7.08,11.31 10,16.22 v -0.24 c 3.67,6.45 7.1,12.77 10.24,18.98 3.13,6.2 6.01,11.85 8.61,16.91 1.23,2.29 2.62,4.9 4.15,7.82 1.53,2.9 2.91,5.44 4.14,7.58 1.83,0.76 2.98,1.15 3.44,1.15 1.39,0 2.5,-0.42 3.35,-1.26 0.83,-0.84 1.56,-1.89 2.18,-3.1 l -2.3,-5.06 c -2.76,-5.68 -6.17,-12.46 -10.24,-20.36 -4.06,-7.9 -8.55,-16.06 -13.45,-24.49" /><path
         id="path138"
         style="fill:#231f20;fill-opacity:1;fill-rule:nonzero;stroke:none"
         d="m 2670.72,2059.83 c -1.37,-7.36 -2.82,-14.87 -4.36,-22.53 -1.53,-7.68 -3.14,-15.57 -4.83,-23.69 1.53,-2.62 3.45,-5.03 5.75,-7.25 2.3,-2.22 4.83,-4.06 7.59,-5.53 2.76,-1.45 5.67,-2.44 8.73,-2.98 3.07,-0.54 6.21,-0.42 9.44,0.34 5.06,1.07 9.77,3.83 14.15,8.29 4.36,4.43 8.27,9.92 11.71,16.44 3.46,6.52 6.53,13.71 9.21,21.62 2.68,7.9 4.9,15.82 6.67,23.8 1.76,7.97 3.11,15.75 4.02,23.34 0.92,7.59 1.39,14.3 1.39,20.12 0,2.14 -0.08,4.14 -0.24,5.98 -0.15,1.84 -0.38,3.52 -0.69,5.05 -0.3,2.16 -0.8,4.42 -1.49,6.8 -0.69,2.37 -1.73,4.43 -3.11,6.2 -1.38,1.76 -3.06,3.07 -5.06,3.91 -1.99,0.84 -4.45,0.96 -7.35,0.35 -3.69,-0.77 -7.32,-2.76 -10.93,-5.99 -3.61,-3.21 -7.13,-7.12 -10.58,-11.71 -3.45,-4.61 -6.71,-9.71 -9.78,-15.3 -3.06,-5.6 -5.86,-11.23 -8.39,-16.91 -2.53,-5.67 -4.83,-11.15 -6.89,-16.44 -2.08,-5.29 -3.73,-9.93 -4.96,-13.91 z m 149.03,37.48 c 2.77,2.14 5.02,2.84 6.78,2.08 1.77,-0.77 3.34,-1.85 4.72,-3.23 -3.07,-6.29 -6.98,-13.08 -11.73,-20.36 -4.75,-7.27 -10.16,-14.63 -16.21,-22.07 -6.05,-7.44 -12.72,-14.8 -20,-22.08 -7.3,-7.27 -15,-13.99 -23.12,-20.12 -4.6,-3.38 -9.66,-6.83 -15.18,-10.34 -5.52,-3.54 -11.31,-6.71 -17.36,-9.55 -6.06,-2.84 -12.23,-5.18 -18.51,-7.02 -6.29,-1.83 -12.42,-2.76 -18.4,-2.76 -5.83,0 -11.69,1.23 -17.6,3.69 -5.9,2.44 -11.07,5.97 -15.52,10.58 -1.23,-5.84 -2.34,-11.43 -3.33,-16.79 -1,-5.36 -2.03,-10.28 -3.1,-14.72 -1.7,-8.12 -3.23,-15.56 -4.6,-22.31 -1.39,-6.74 -2.7,-13.41 -3.91,-20 -1.23,-6.59 -2.34,-13.38 -3.34,-20.36 -0.99,-6.97 -1.88,-14.6 -2.65,-22.88 -0.3,-2.3 -0.46,-4.45 -0.46,-6.45 0,-1.98 0,-3.91 0,-5.74 0,-4.6 0.2,-8.55 0.58,-11.85 0.39,-3.29 0.73,-5.93 1.03,-7.93 0.16,-1.07 0.27,-1.87 0.35,-2.42 0.08,-0.52 0.12,-1.26 0.12,-2.18 -0.31,-1.69 -0.93,-2.76 -1.84,-3.22 -0.93,-0.46 -2,-0.69 -3.22,-0.69 -5.37,0 -9.82,1.54 -13.35,4.6 -3.52,3.07 -6.39,7.13 -8.62,12.19 -2.22,5.06 -3.8,10.77 -4.71,17.13 -0.92,6.36 -1.38,12.85 -1.38,19.44 0,2.3 0.04,4.72 0.12,7.24 0.07,2.54 0.26,4.94 0.56,7.24 0.78,7.05 2,15.84 3.69,26.34 1.69,10.5 3.64,21.73 5.86,33.69 2.22,11.96 4.6,24.18 7.13,36.67 2.53,12.5 4.95,24.42 7.25,35.76 1.99,9.82 3.95,19.48 5.86,28.99 1.92,9.5 3.68,18.39 5.29,26.67 1.61,8.28 2.94,15.64 4.03,22.08 1.07,6.44 1.75,11.5 2.06,15.17 0.31,3.23 0.38,6.13 0.24,8.75 -0.16,2.6 -0.39,4.98 -0.69,7.12 -0.16,1.23 -0.28,2.34 -0.34,3.34 -0.08,0.99 -0.04,1.88 0.1,2.65 0.16,2.6 1.07,4.37 2.76,5.28 1.69,0.92 3.61,1.39 5.75,1.39 4.75,0 8.7,-0.89 11.85,-2.65 3.14,-1.77 5.67,-4.18 7.58,-7.25 1.92,-3.06 3.26,-6.63 4.03,-10.69 0.77,-4.06 1.15,-8.4 1.15,-12.99 0,-1.7 -0.04,-3.41 -0.12,-5.17 -0.08,-1.77 -0.18,-3.5 -0.34,-5.18 0,-0.77 -0.04,-1.69 -0.12,-2.76 -0.08,-1.07 -0.19,-1.99 -0.34,-2.76 3.36,6.45 7.09,12.68 11.16,18.75 4.05,6.05 8.51,11.53 13.33,16.44 4.83,4.9 9.93,9.16 15.3,12.76 5.36,3.6 11.04,6.17 17.01,7.71 1.69,0.46 3.37,0.76 5.06,0.92 1.69,0.15 3.37,0.23 5.06,0.23 5.52,0 10.3,-1.04 14.37,-3.11 4.06,-2.07 7.52,-4.87 10.35,-8.39 2.84,-3.54 5.14,-7.59 6.91,-12.19 1.75,-4.6 3.1,-9.35 4.01,-14.26 0.93,-5.06 1.39,-10.89 1.39,-17.47 0,-6.45 -0.46,-13.27 -1.39,-20.48 -0.91,-7.2 -2.3,-14.48 -4.13,-21.84 -1.84,-7.37 -4.14,-14.69 -6.9,-21.97 -2.76,-7.28 -5.98,-14.29 -9.66,-21.04 11.34,9.35 22.26,19.97 32.77,31.85 10.5,11.88 19.28,24.57 26.33,38.06 l 0.23,0.46" /><path
         id="path140"
         style="fill:#231f20;fill-opacity:1;fill-rule:nonzero;stroke:none"
         d="m 2878.62,2209.54 c -0.3,-3.99 -0.88,-8.29 -1.72,-12.88 -0.84,-4.6 -1.81,-9.5 -2.88,-14.72 6.75,0 13.23,-0.38 19.44,-1.15 6.21,-0.77 11.95,-2.22 17.25,-4.37 5.28,-2.14 10,-5.1 14.13,-8.85 4.15,-3.76 7.52,-8.55 10.12,-14.38 h -0.22 c 0.61,-1.23 0.38,-2.52 -0.69,-3.91 -1.08,-1.37 -2.53,-1.69 -4.37,-0.91 -6.43,6.43 -14.29,10.77 -23.57,12.99 -9.28,2.22 -19.29,3.34 -30.01,3.34 h -5.75 c -1.53,-6.91 -3.18,-13.81 -4.95,-20.7 -1.76,-6.9 -3.56,-13.95 -5.41,-21.17 l -4.36,-17.47 -0.7,-2.99 c -1.07,-3.99 -2.44,-9.39 -4.13,-16.21 -1.69,-6.83 -3.33,-14.19 -4.94,-22.07 -1.61,-7.9 -3,-15.84 -4.15,-23.81 -1.15,-7.98 -1.72,-15.18 -1.72,-21.61 0,-4.45 0.35,-8.32 1.03,-11.63 0.69,-3.29 1.96,-5.55 3.79,-6.77 1.39,-1.07 3.61,-1.15 6.68,-0.24 3.06,0.92 6.83,3 11.26,6.21 4.76,3.83 9.4,8.7 13.92,14.61 4.53,5.9 8.82,12.22 12.88,18.97 4.07,6.75 7.82,13.53 11.26,20.36 3.45,6.81 6.48,12.98 9.09,18.5 h -0.23 c 2.15,4.3 4.1,8.09 5.86,11.39 1.77,3.29 3.49,6.01 5.18,8.17 0.15,0.14 0.99,0.22 2.54,0.22 2.44,0 4.21,-1.45 5.28,-4.37 l -8.28,-17.24 h 0.24 c -4.92,-10.28 -10.28,-21.09 -16.11,-32.43 -5.82,-11.35 -12.07,-21.77 -18.74,-31.27 -6.66,-9.52 -13.76,-17.38 -21.27,-23.58 -7.52,-6.21 -15.41,-9.32 -23.69,-9.32 -13.65,0 -23.15,3.38 -28.52,10.12 -5.37,6.75 -8.05,16.18 -8.05,28.3 0,1.68 0.04,3.37 0.12,5.06 0.08,1.68 0.2,3.45 0.34,5.28 0.47,5.21 1.54,12.34 3.23,21.39 1.69,9.04 3.67,18.97 5.97,29.78 2.3,10.8 4.83,22.15 7.6,34.04 2.76,11.88 5.44,23.33 8.04,34.38 l 3.22,13.1 c -5.21,-0.46 -10.19,-0.84 -14.95,-1.15 -4.76,-0.3 -9.34,-0.46 -13.79,-0.46 -9.36,0 -17.56,1.15 -24.61,3.46 -7.06,2.3 -12.04,6.58 -14.94,12.87 -0.31,0.76 -0.55,1.65 -0.7,2.65 -0.15,0.99 -0.07,1.84 0.23,2.53 0.31,0.68 0.89,1.15 1.72,1.38 0.85,0.23 1.96,-0.12 3.34,-1.04 l -0.24,0.24 c 4.62,-2 9.64,-3.38 15.08,-4.15 5.44,-0.77 11.07,-1.15 16.89,-1.15 5.53,0 11.43,0.26 17.72,0.81 6.28,0.54 12.42,1.11 18.39,1.73 2.15,9.65 3.99,18.12 5.52,25.4 1.53,7.28 2.45,12.54 2.76,15.76 0.15,2.6 0.12,4.78 -0.12,6.55 -0.22,1.76 -0.5,3.41 -0.8,4.94 -0.15,0.77 -0.27,1.5 -0.35,2.2 -0.07,0.68 -0.11,1.33 -0.11,1.94 0.31,2.15 1.26,3.57 2.88,4.27 1.61,0.68 3.48,1.03 5.62,1.03 5.99,0 10.78,-0.93 14.38,-2.76 3.6,-1.84 6.36,-4.26 8.28,-7.24 1.91,-3 3.1,-6.41 3.57,-10.24 0.46,-3.83 0.54,-7.74 0.22,-11.73" /><path
         id="path142"
         style="fill:none;stroke:#1f1a1a;stroke-width:30;stroke-linecap:round;stroke-linejoin:round;stroke-miterlimit:10;stroke-dasharray:none;stroke-opacity:1"
         d="m 1861.94,2011.89 h -149.56 v 1544.63 l 726.06,0.54" /></g></g></svg>